<svg xmlns="http://www.w3.org/2000/svg" version="1.1" xmlns:xlink="http://www.w3.org/1999/xlink" xmlns:svgjs="http://svgjs.dev/svgjs" viewBox="0 0 13.823012049164529 4.054096695861526"><g transform="matrix(0.731277448921726,0,0,0.731277448921726,2.401991133933562,1.580055007277358)"><g transform="matrix(1,0,0,1,0,0)" clip-path="url(#SvgjsClipPath11080)"><g clip-path="url(#a762b0cec-202a-4e96-bd25-8fa5a34b8587c3a341d2-00f2-4d1b-9282-b458942929a5)"><path d=" M 11.051123197641076 1.8934188168880106 C 10.343009143715527 1.8934188168880106 9.768993408203126 1.319403081375611 9.768993408203126 0.6112890274500616 C 9.768993408203126 -0.09690308137561177 10.343009143715527 -0.670918816888011 11.051123197641076 -0.670918816888011 C 11.759237251566624 -0.670918816888011 12.333252987079025 -0.09690308137561132 12.333252987079025 0.6112890274500619 C 12.333252987079025 1.319403081375611 11.759237251566624 1.8934188168880106 11.051123197641076 1.8934188168880106" fill="#aac527" transform="matrix(1,0,0,1,0,0)" fill-rule="nonzero"></path></g><g clip-path="url(#a762b0cec-202a-4e96-bd25-8fa5a34b8587c3a341d2-00f2-4d1b-9282-b458942929a5)"><path d=" M 11.886778958369351 0.5333902371262412 C 11.897628589486597 0.5106762611901373 11.909649044105704 0.48866477935514985 11.914644557713645 0.4727415797298401 C 11.935875490547392 0.40514603622239653 11.856727821821586 0.21758011122426013 11.792254474319105 0.18651426097488089 C 11.78007790989975 0.18066014346557568 11.759705580967369 0.17683545335949635 11.73917714223474 0.17230826915230035 C 11.770242992484118 0.2395915930592475 11.818090646260172 0.35175648453753394 11.886778958369351 0.5333902371262412" fill="#343432" transform="matrix(1,0,0,1,0,0)" fill-rule="nonzero"></path></g><g clip-path="url(#a762b0cec-202a-4e96-bd25-8fa5a34b8587c3a341d2-00f2-4d1b-9282-b458942929a5)"><path d=" M 11.00959799077507 1.1749234612459598 C 11.003665818365642 1.123407227164075 11.002416939963656 1.071266553881197 10.998358085157205 1.0015635280704038 C 11.04815711143636 0.9792398266349204 11.066890287466137 0.9703415680207764 11.118328466647899 0.9512181174903797 C 11.042693268427676 0.6614783282298374 10.937865537561052 0.49295779886197366 10.876982715464278 0.4099073851299647 C 10.715955456508325 0.47929819134026175 10.589194298706838 0.5309705352223951 10.427542600549891 0.5988782983303346 C 10.278535796213045 0.6614783282298377 10.23279562474034 0.7685696512000596 10.292507623335254 0.9155470281336805 C 10.310226085663418 0.9591797173030349 10.32755427349096 1.0028904613725134 10.345897175020117 1.046210930941371 C 10.379773001673962 1.1263733133687892 10.493811210755226 1.181948402257126 10.57889105189046 1.173518473043727 C 10.613157153044927 1.1701621123383918 10.659209544118127 1.1874903001659352 10.684655441558574 1.211453154504024 C 10.740152475546786 1.2641402120877703 10.782926560814776 1.3300966026926084 10.836706387000259 1.3848911425797046 C 10.884554040776313 1.4337535100573713 10.997187261655345 1.4215769456380163 11.057289534750877 1.3641285391467024 C 11.114815996142315 1.3090217796591097 11.063455871860679 1.2688235060952144 11.034029174513904 1.2258933110269767 C 11.023413708097031 1.2103603859022871 11.011627418178296 1.1926419235741235 11.00959799077507 1.1749234612459598" fill="#343432" transform="matrix(1,0,0,1,0,0)" fill-rule="nonzero"></path></g><g clip-path="url(#a762b0cec-202a-4e96-bd25-8fa5a34b8587c3a341d2-00f2-4d1b-9282-b458942929a5)"><path d=" M 11.954140337176423 0.9029021343135816 C 11.922762267326547 0.8073629365617218 11.876397656652852 0.7168192524178022 11.844395147601983 0.6213581095660664 C 11.843358521137622 0.6180733675578957 11.842806329535183 0.6146550385904138 11.842755994699377 0.6112109725499376 C 11.743704326441934 0.3458243121281047 11.684304547447518 0.21445791521929747 11.655112014801118 0.15544841072550175 C 11.65418080627784 0.154240712557823 11.653345664513143 0.1529619017306315 11.652614257997147 0.15162372061942242 L 11.648477348290571 0.14233518750465823 C 11.637861881873699 0.12149452917153192 11.632788313365634 0.11353292935887704 11.632632203565386 0.11322070975838072 L 11.63481774076886 0.1118157215561475 C 11.596414729907817 0.023535629515825995 11.56363167185571 -0.0673983291287138 11.522340629690076 -0.15427343296680207 C 11.512193492673948 -0.17573853050092103 11.467077760402237 -0.19775001233590828 11.44584682756849 -0.19181783992647894 C 11.424537839834619 -0.18580761261692563 11.407521871607571 -0.14701432725526364 11.39846750319318 -0.11938289261134338 C 11.386525103474197 -0.08324347385389974 11.392067001383007 -0.040469388585910204 11.37661213115844 -0.006671616832188421 C 11.30425523874343 0.15138955591905034 11.190138974762041 0.27307714521247306 11.030906978508941 0.3441071043253753 C 11.005461081068495 0.3554250648433651 11.006944124170852 0.35487868054249694 10.981420171830282 0.3659624763601147 C 11.045503244832142 0.4550231174016769 11.152984842302985 0.6266658427745032 11.227839491521966 0.9121906674283459 C 11.40291663250025 0.8527128335338058 11.55176732703685 0.8387410064115973 11.749090114550496 0.9154689732335567 C 11.78179511770248 0.9281919219537799 11.808724058245284 0.954808642896087 11.840570457495904 0.9705757327211492 C 11.871558252845158 0.9858744931454665 11.916049545915879 1.0227944609041506 11.93798297285074 1.0076518102800813 C 11.95983834488548 0.9925872145561362 11.963975254592057 0.9327971610610996 11.954140337176423 0.9029021343135816" fill="#343432" transform="matrix(1,0,0,1,0,0)" fill-rule="nonzero"></path></g><g clip-path="url(#a762b0cec-202a-4e96-bd25-8fa5a34b8587c3a341d2-00f2-4d1b-9282-b458942929a5)"><path d=" M 10.300391168247785 1.1044398864339264 C 10.300391168247785 1.1044398864339264 10.195797602081534 0.89884327950713 10.203368927393567 0.8277352654941036 C 10.203368927393567 0.8277352654941036 10.11423023145188 0.8571619628408772 10.152633242312923 0.994694696859486 C 10.191036253173964 1.1322274308780944 10.286731560726073 1.1047521060344225 10.300391168247785 1.1044398864339264" fill="#343432" transform="matrix(1,0,0,1,0,0)" fill-rule="nonzero"></path></g></g><g><path d=" M 0.47550000000000003 0.4049999999999999 Q 0.5385 0.37049999999999994 0.624 0.37049999999999994 Q 0.7245 0.37049999999999994 0.80625 0.42299999999999993 Q 0.888 0.4754999999999999 0.93525 0.573 Q 0.9825 0.6704999999999999 0.9825 0.8009999999999999 Q 0.9825 0.9315 0.93525 1.02975 Q 0.888 1.128 0.80625 1.1804999999999999 Q 0.7245 1.2329999999999999 0.624 1.2329999999999999 Q 0.5385 1.2329999999999999 0.47625 1.1985 Q 0.41400000000000003 1.164 0.378 1.1055 L 0.378 1.6244999999999998 L 0.084 1.6244999999999998 L 0.084 0.3809999999999999 L 0.378 0.3809999999999999 L 0.378 0.4979999999999999 Q 0.41250000000000003 0.4394999999999999 0.47550000000000003 0.4049999999999999 M 0.63975 0.67275 Q 0.5955 0.6269999999999999 0.531 0.6269999999999999 Q 0.4665 0.6269999999999999 0.42225 0.6734999999999999 Q 0.378 0.7199999999999999 0.378 0.8009999999999999 Q 0.378 0.8835 0.42225 0.9299999999999999 Q 0.4665 0.9764999999999999 0.531 0.9764999999999999 Q 0.5955 0.9764999999999999 0.63975 0.9292499999999999 Q 0.684 0.8819999999999999 0.684 0.8009999999999999 Q 0.684 0.7184999999999999 0.63975 0.67275 M 1.125739013671875 0.26024999999999987 Q 1.078489013671875 0.2174999999999998 1.078489013671875 0.1529999999999998 Q 1.078489013671875 0.08699999999999997 1.125739013671875 0.04349999999999987 Q 1.172989013671875 0 1.2509890136718749 0 Q 1.3274890136718749 0 1.374739013671875 0.04349999999999987 Q 1.421989013671875 0.08699999999999997 1.421989013671875 0.1529999999999998 Q 1.421989013671875 0.2174999999999998 1.374739013671875 0.26024999999999987 Q 1.3274890136718749 0.30299999999999994 1.2509890136718749 0.30299999999999994 Q 1.172989013671875 0.30299999999999994 1.125739013671875 0.26024999999999987 M 1.396489013671875 0.3809999999999999 L 1.396489013671875 1.2225 L 1.102489013671875 1.2225 L 1.102489013671875 0.3809999999999999 L 1.396489013671875 0.3809999999999999 M 1.856964111328125 0.11249999999999982 L 1.856964111328125 1.2225 L 1.562964111328125 1.2225 L 1.562964111328125 0.11249999999999982 L 1.856964111328125 0.11249999999999982 M 2.189189208984375 1.1804999999999999 Q 2.0894392089843747 1.128 2.032439208984375 1.0305 Q 1.9754392089843749 0.9329999999999999 1.9754392089843749 0.8009999999999999 Q 1.9754392089843749 0.6704999999999999 2.033189208984375 0.573 Q 2.090939208984375 0.4754999999999999 2.190689208984375 0.42299999999999993 Q 2.290439208984375 0.37049999999999994 2.4164392089843747 0.37049999999999994 Q 2.5424392089843746 0.37049999999999994 2.642189208984375 0.42299999999999993 Q 2.741939208984375 0.4754999999999999 2.799689208984375 0.573 Q 2.857439208984375 0.6704999999999999 2.857439208984375 0.8009999999999999 Q 2.857439208984375 0.9315 2.799689208984375 1.02975 Q 2.741939208984375 1.128 2.641439208984375 1.1804999999999999 Q 2.540939208984375 1.2329999999999999 2.414939208984375 1.2329999999999999 Q 2.2889392089843748 1.2329999999999999 2.189189208984375 1.1804999999999999 M 2.517689208984375 0.9322499999999999 Q 2.5589392089843748 0.8864999999999998 2.5589392089843748 0.8009999999999999 Q 2.5589392089843748 0.7154999999999999 2.517689208984375 0.6704999999999999 Q 2.4764392089843748 0.6255 2.4164392089843747 0.6255 Q 2.3564392089843746 0.6255 2.315939208984375 0.6704999999999999 Q 2.2754392089843747 0.7154999999999999 2.2754392089843747 0.8009999999999999 Q 2.2754392089843747 0.8879999999999999 2.314439208984375 0.9329999999999999 Q 2.353439208984375 0.978 2.414939208984375 0.978 Q 2.4764392089843748 0.978 2.517689208984375 0.9322499999999999 M 3.4724187011718746 0.972 L 3.4724187011718746 1.2225 L 3.3449187011718746 1.2225 Q 3.022418701171875 1.2225 3.022418701171875 0.9029999999999999 L 3.022418701171875 0.6255 L 2.918918701171875 0.6255 L 2.918918701171875 0.3809999999999999 L 3.022418701171875 0.3809999999999999 L 3.022418701171875 0.17699999999999982 L 3.317918701171875 0.17699999999999982 L 3.317918701171875 0.3809999999999999 L 3.4709187011718745 0.3809999999999999 L 3.4709187011718745 0.6255 L 3.317918701171875 0.6255 L 3.317918701171875 0.9075 Q 3.317918701171875 0.942 3.3336687011718746 0.9569999999999999 Q 3.349418701171875 0.972 3.386918701171875 0.972 L 3.4724187011718746 0.972 M 4.28241796875 0.4049999999999999 Q 4.34541796875 0.37049999999999994 4.430917968749999 0.37049999999999994 Q 4.53141796875 0.37049999999999994 4.61316796875 0.42299999999999993 Q 4.69491796875 0.4754999999999999 4.74216796875 0.573 Q 4.78941796875 0.6704999999999999 4.78941796875 0.8009999999999999 Q 4.78941796875 0.9315 4.74216796875 1.02975 Q 4.69491796875 1.128 4.61316796875 1.1804999999999999 Q 4.53141796875 1.2329999999999999 4.430917968749999 1.2329999999999999 Q 4.34541796875 1.2329999999999999 4.28316796875 1.1985 Q 4.220917968749999 1.164 4.18491796875 1.1055 L 4.18491796875 1.6244999999999998 L 3.8909179687499997 1.6244999999999998 L 3.8909179687499997 0.3809999999999999 L 4.18491796875 0.3809999999999999 L 4.18491796875 0.4979999999999999 Q 4.219417968749999 0.4394999999999999 4.28241796875 0.4049999999999999 M 4.44666796875 0.67275 Q 4.40241796875 0.6269999999999999 4.337917968749999 0.6269999999999999 Q 4.27341796875 0.6269999999999999 4.22916796875 0.6734999999999999 Q 4.18491796875 0.7199999999999999 4.18491796875 0.8009999999999999 Q 4.18491796875 0.8835 4.22916796875 0.9299999999999999 Q 4.27341796875 0.9764999999999999 4.337917968749999 0.9764999999999999 Q 4.40241796875 0.9764999999999999 4.44666796875 0.9292499999999999 Q 4.49091796875 0.8819999999999999 4.49091796875 0.8009999999999999 Q 4.49091796875 0.7184999999999999 4.44666796875 0.67275 M 5.323406982421875 0.41549999999999987 Q 5.393906982421875 0.37349999999999994 5.474906982421874 0.37349999999999994 L 5.474906982421874 0.6869999999999999 L 5.392406982421875 0.6869999999999999 Q 5.296406982421875 0.6869999999999999 5.249906982421875 0.7244999999999999 Q 5.203406982421875 0.7619999999999999 5.203406982421875 0.855 L 5.203406982421875 1.2225 L 4.909406982421874 1.2225 L 4.909406982421874 0.3809999999999999 L 5.203406982421875 0.3809999999999999 L 5.203406982421875 0.5294999999999999 Q 5.252906982421875 0.4574999999999999 5.323406982421875 0.41549999999999987 M 5.744189208984374 1.1804999999999999 Q 5.644439208984375 1.128 5.5874392089843745 1.0305 Q 5.530439208984374 0.9329999999999999 5.530439208984374 0.8009999999999999 Q 5.530439208984374 0.6704999999999999 5.5881892089843745 0.573 Q 5.645939208984375 0.4754999999999999 5.745689208984374 0.42299999999999993 Q 5.8454392089843745 0.37049999999999994 5.971439208984375 0.37049999999999994 Q 6.097439208984374 0.37049999999999994 6.1971892089843745 0.42299999999999993 Q 6.296939208984375 0.4754999999999999 6.354689208984374 0.573 Q 6.412439208984375 0.6704999999999999 6.412439208984375 0.8009999999999999 Q 6.412439208984375 0.9315 6.354689208984374 1.02975 Q 6.296939208984375 1.128 6.1964392089843745 1.1804999999999999 Q 6.095939208984374 1.2329999999999999 5.969939208984375 1.2329999999999999 Q 5.8439392089843745 1.2329999999999999 5.744189208984374 1.1804999999999999 M 6.072689208984374 0.9322499999999999 Q 6.113939208984375 0.8864999999999998 6.113939208984375 0.8009999999999999 Q 6.113939208984375 0.7154999999999999 6.072689208984374 0.6704999999999999 Q 6.0314392089843745 0.6255 5.971439208984375 0.6255 Q 5.911439208984374 0.6255 5.870939208984375 0.6704999999999999 Q 5.830439208984375 0.7154999999999999 5.830439208984375 0.8009999999999999 Q 5.830439208984375 0.8879999999999999 5.8694392089843745 0.9329999999999999 Q 5.908439208984374 0.978 5.969939208984375 0.978 Q 6.0314392089843745 0.978 6.072689208984374 0.9322499999999999 M 6.552668701171874 0.26024999999999987 Q 6.505418701171875 0.2174999999999998 6.505418701171875 0.1529999999999998 Q 6.505418701171875 0.08699999999999997 6.552668701171874 0.04349999999999987 Q 6.599918701171874 0 6.677918701171874 0 Q 6.754418701171875 0 6.801668701171875 0.04349999999999987 Q 6.848918701171875 0.08699999999999997 6.848918701171875 0.1529999999999998 Q 6.848918701171875 0.2174999999999998 6.801668701171875 0.26024999999999987 Q 6.754418701171875 0.30299999999999994 6.677918701171874 0.30299999999999994 Q 6.599918701171874 0.30299999999999994 6.552668701171874 0.26024999999999987 M 6.824918701171875 1.305 Q 6.824918701171875 1.6244999999999998 6.503918701171875 1.6244999999999998 L 6.397418701171874 1.6244999999999998 L 6.397418701171874 1.3739999999999999 L 6.460418701171874 1.3739999999999999 Q 6.497918701171875 1.3739999999999999 6.514418701171874 1.359 Q 6.530918701171874 1.3439999999999999 6.530918701171874 1.3094999999999999 L 6.530918701171874 0.3809999999999999 L 6.824918701171875 0.3809999999999999 L 6.824918701171875 1.305 M 7.789428955078124 0.861 L 7.232928955078124 0.861 Q 7.237428955078125 0.9299999999999999 7.271178955078124 0.9637499999999999 Q 7.3049289550781245 0.9974999999999999 7.357428955078125 0.9974999999999999 Q 7.430928955078125 0.9974999999999999 7.462428955078124 0.9315 L 7.7759289550781245 0.9315 Q 7.756428955078125 1.0185 7.700178955078124 1.0867499999999999 Q 7.643928955078124 1.1549999999999998 7.558428955078124 1.194 Q 7.472928955078125 1.2329999999999999 7.369428955078124 1.2329999999999999 Q 7.244928955078125 1.2329999999999999 7.148178955078125 1.1804999999999999 Q 7.051428955078125 1.128 6.996678955078124 1.0305 Q 6.941928955078124 0.9329999999999999 6.941928955078124 0.8009999999999999 Q 6.941928955078124 0.6689999999999999 6.995928955078124 0.5722499999999999 Q 7.049928955078125 0.4754999999999999 7.146678955078125 0.42299999999999993 Q 7.243428955078125 0.37049999999999994 7.369428955078124 0.37049999999999994 Q 7.4939289550781245 0.37049999999999994 7.589928955078125 0.4214999999999999 Q 7.685928955078125 0.4724999999999999 7.739928955078124 0.5677499999999999 Q 7.793928955078124 0.6629999999999999 7.793928955078124 0.7919999999999999 Q 7.793928955078124 0.8264999999999999 7.789428955078124 0.861 M 7.4939289550781245 0.7184999999999999 Q 7.4939289550781245 0.6644999999999999 7.457928955078124 0.6337499999999999 Q 7.4219289550781244 0.6029999999999999 7.367928955078124 0.6029999999999999 Q 7.313928955078125 0.6029999999999999 7.279428955078124 0.6322499999999999 Q 7.244928955078125 0.6614999999999999 7.2344289550781244 0.7184999999999999 L 7.4939289550781245 0.7184999999999999 M 7.918470703124999 0.573 Q 7.9724707031249995 0.4754999999999999 8.069220703125 0.42299999999999993 Q 8.165970703125 0.37049999999999994 8.290470703125 0.37049999999999994 Q 8.450970703125 0.37049999999999994 8.560470703124999 0.45824999999999994 Q 8.669970703125 0.5459999999999999 8.701470703124999 0.7034999999999999 L 8.389470703125 0.7034999999999999 Q 8.362470703125 0.6209999999999999 8.284470703124999 0.6209999999999999 Q 8.228970703124999 0.6209999999999999 8.196720703125 0.66675 Q 8.164470703125 0.7124999999999999 8.164470703125 0.8009999999999999 Q 8.164470703125 0.8895 8.196720703125 0.9359999999999999 Q 8.228970703124999 0.9824999999999999 8.284470703124999 0.9824999999999999 Q 8.363970703125 0.9824999999999999 8.389470703125 0.8999999999999999 L 8.701470703124999 0.8999999999999999 Q 8.669970703125 1.0559999999999998 8.560470703124999 1.1444999999999999 Q 8.450970703125 1.2329999999999999 8.290470703125 1.2329999999999999 Q 8.165970703125 1.2329999999999999 8.069220703125 1.1804999999999999 Q 7.9724707031249995 1.128 7.918470703124999 1.0305 Q 7.864470703124999 0.9329999999999999 7.864470703124999 0.8009999999999999 Q 7.864470703124999 0.6704999999999999 7.918470703124999 0.573 M 9.317962646484375 0.972 L 9.317962646484375 1.2225 L 9.190462646484374 1.2225 Q 8.867962646484374 1.2225 8.867962646484374 0.9029999999999999 L 8.867962646484374 0.6255 L 8.764462646484374 0.6255 L 8.764462646484374 0.3809999999999999 L 8.867962646484374 0.3809999999999999 L 8.867962646484374 0.17699999999999982 L 9.163462646484374 0.17699999999999982 L 9.163462646484374 0.3809999999999999 L 9.316462646484375 0.3809999999999999 L 9.316462646484375 0.6255 L 9.163462646484374 0.6255 L 9.163462646484374 0.9075 Q 9.163462646484374 0.942 9.179212646484375 0.9569999999999999 Q 9.194962646484374 0.972 9.232462646484374 0.972 L 9.317962646484375 0.972" fill="#343432" fill-rule="nonzero"></path></g><g></g></g><defs><clipPath id="SvgjsClipPath11080"><path d=" M 9.768993408203126 -0.6709188168880106 h 2.5642595788758977 v 2.564337633776021 h -2.5642595788758977 Z"></path></clipPath><clipPath id="a762b0cec-202a-4e96-bd25-8fa5a34b8587c3a341d2-00f2-4d1b-9282-b458942929a5"><path d=" M 9.768915353303003 1.8934188168880106 L 12.333252987079025 1.8934188168880106 L 12.333252987079025 -0.6709188168880115 L 9.768915353303003 -0.6709188168880115 Z"></path></clipPath></defs></svg>